<?xml version="1.0" standalone="no"?>
<!DOCTYPE svg PUBLIC "-//W3C//DTD SVG 20010904//EN"
 "http://www.w3.org/TR/2001/REC-SVG-20010904/DTD/svg10.dtd">
<svg version="1.0" xmlns="http://www.w3.org/2000/svg"
 width="312.000000pt" height="312.000000pt" viewBox="0 0 312.000000 312.000000"
 preserveAspectRatio="xMidYMid meet">
<metadata>
Created by potrace 1.14, written by Peter Selinger 2001-2017
</metadata>
<g transform="translate(0.000000,312.000000) scale(0.100000,-0.100000)"
fill="#000000" stroke="none">
<path d="M1527 3114 c-1 -1 -67 -4 -147 -8 -80 -3 -154 -8 -165 -10 -11 -2
-49 -7 -85 -10 -62 -6 -82 -9 -140 -21 -14 -3 -43 -8 -65 -11 -131 -19 -364
-83 -452 -125 -74 -35 -126 -92 -142 -154 -6 -24 -11 -79 -11 -122 0 -49 -5
-84 -12 -92 -10 -11 -10 -13 0 -7 8 5 12 -2 13 -26 0 -18 2 -41 4 -50 2 -10
-1 -18 -6 -18 -6 0 -7 -5 -3 -11 6 -11 7 -19 18 -159 3 -41 8 -88 11 -105 13
-84 18 -123 19 -157 0 -21 4 -38 7 -38 4 0 10 -20 13 -45 10 -60 8 -52 27
-125 14 -50 15 -68 6 -79 -9 -12 -9 -13 1 -7 8 5 16 -2 22 -20 6 -15 8 -29 5
-32 -2 -3 1 -12 7 -20 7 -7 14 -24 15 -35 2 -12 14 -49 26 -82 12 -33 21 -63
19 -67 -1 -5 2 -8 8 -8 5 0 10 -6 10 -14 0 -8 9 -31 20 -53 37 -73 60 -127 60
-140 0 -7 4 -13 8 -13 4 0 13 -14 20 -32 9 -25 9 -34 -1 -41 -8 -6 -7 -7 5 -3
13 4 23 -5 38 -35 12 -22 18 -45 14 -51 -4 -6 -3 -8 3 -5 9 6 38 -25 34 -37
-1 -4 8 -16 19 -28 11 -12 20 -27 20 -34 0 -6 7 -15 17 -18 14 -6 14 -8 -3
-21 -19 -14 -18 -14 1 -9 26 6 72 -55 52 -69 -8 -6 -6 -7 5 -3 19 6 43 -25 30
-39 -4 -5 -2 -5 4 -2 6 3 17 -3 25 -15 8 -11 26 -33 42 -48 15 -16 27 -31 27
-34 0 -3 14 -19 31 -35 17 -17 28 -35 24 -41 -3 -6 -3 -10 2 -9 21 4 33 -2 33
-16 0 -8 5 -15 11 -15 5 0 7 -5 3 -12 -4 -6 -3 -8 3 -5 13 8 46 -27 36 -38 -5
-4 -3 -5 3 -2 14 8 66 -41 58 -55 -4 -6 -3 -8 3 -5 13 8 55 -22 47 -34 -3 -5
-2 -8 3 -7 16 5 75 -51 67 -63 -4 -8 -3 -9 5 -5 16 10 64 -22 55 -36 -4 -7 -3
-8 5 -4 13 9 43 -18 33 -29 -4 -5 -2 -5 4 -2 12 7 84 -39 84 -54 0 -6 4 -8 9
-5 14 9 42 -5 34 -17 -4 -6 -1 -7 7 -2 8 5 31 8 52 8 21 0 38 2 38 6 0 3 18
15 40 25 22 11 40 23 40 28 0 4 5 8 11 8 5 0 7 -6 3 -12 -4 -8 -3 -10 2 -5 5
5 9 13 9 19 0 6 16 19 35 29 19 11 31 19 26 19 -5 0 4 10 20 23 16 12 37 30
47 40 10 10 22 15 27 12 6 -4 10 0 10 8 0 7 14 26 30 40 17 15 30 24 30 21 0
-4 9 5 21 20 11 14 25 24 30 20 5 -3 8 -1 7 4 -4 12 64 78 75 74 5 -1 6 1 3 6
-3 4 17 33 45 63 27 30 72 84 100 121 29 37 56 65 62 61 5 -3 7 -2 4 4 -4 6 7
28 23 49 16 21 30 43 30 47 0 5 6 14 13 21 21 23 42 56 42 69 1 7 7 11 14 9 9
-2 11 3 7 14 -4 11 -2 15 8 11 9 -4 12 0 9 12 -2 9 5 27 16 40 11 13 18 27 16
32 -3 4 -1 10 4 13 14 9 121 236 121 256 0 6 5 10 11 10 5 0 8 4 5 9 -8 12 4
42 14 36 5 -3 6 5 2 17 -3 12 -1 19 5 15 5 -3 9 4 8 16 -1 12 2 29 6 37 8 16
39 114 44 140 2 8 8 35 15 60 7 25 13 51 13 58 0 6 4 12 8 12 4 0 5 9 2 20 -3
11 -1 20 3 20 5 0 10 12 10 28 1 28 7 68 24 162 5 30 12 82 15 115 6 58 12
100 15 100 1 0 4 99 7 220 5 247 -1 277 -66 341 -65 64 -291 149 -481 180 -14
3 -47 9 -75 14 -48 9 -157 24 -258 34 -88 10 -394 25 -400 20z"/>
<path d="M2576 1338 c3 -5 10 -6 15 -3 13 9 11 12 -6 12 -8 0 -12 -4 -9 -9z"/>
<path d="M793 905 c0 -8 4 -12 9 -9 5 3 6 10 3 15 -9 13 -12 11 -12 -6z"/>
<path d="M2255 820 c-3 -5 -1 -10 4 -10 6 0 11 5 11 10 0 6 -2 10 -4 10 -3 0
-8 -4 -11 -10z"/>
<path d="M895 760 c-3 -5 -1 -10 4 -10 6 0 11 5 11 10 0 6 -2 10 -4 10 -3 0
-8 -4 -11 -10z"/>
<path d="M2096 578 c3 -5 10 -6 15 -3 13 9 11 12 -6 12 -8 0 -12 -4 -9 -9z"/>
<path d="M2033 535 c0 -8 4 -12 9 -9 5 3 6 10 3 15 -9 13 -12 11 -12 -6z"/>
<path d="M1110 519 c0 -5 5 -7 10 -4 6 3 10 8 10 11 0 2 -4 4 -10 4 -5 0 -10
-5 -10 -11z"/>
<path d="M1986 518 c3 -4 9 -8 15 -8 5 0 9 4 9 8 0 5 -7 9 -15 9 -8 0 -12 -4
-9 -9z"/>
<path d="M1355 320 c-3 -5 -1 -10 4 -10 6 0 11 5 11 10 0 6 -2 10 -4 10 -3 0
-8 -4 -11 -10z"/>
<path d="M1353 275 c0 -8 4 -12 9 -9 5 3 6 10 3 15 -9 13 -12 11 -12 -6z"/>
<path d="M1417 275 c-4 -8 -3 -16 1 -19 4 -3 9 4 9 15 2 23 -3 25 -10 4z"/>
<path d="M1450 260 c0 -5 5 -10 11 -10 5 0 7 5 4 10 -3 6 -8 10 -11 10 -2 0
-4 -4 -4 -10z"/>
<path d="M1550 222 c0 -5 7 -9 15 -9 8 0 12 4 9 9 -3 4 -9 8 -15 8 -5 0 -9 -4
-9 -8z"/>
<path d="M1596 218 c3 -5 10 -6 15 -3 13 9 11 12 -6 12 -8 0 -12 -4 -9 -9z"/>
<path d="M1690 223 c0 -6 8 -17 18 -24 16 -13 16 -13 2 6 -8 11 -16 22 -17 24
-2 2 -3 0 -3 -6z"/>
<path d="M1476 187 c3 -10 9 -15 12 -12 3 3 0 11 -7 18 -10 9 -11 8 -5 -6z"/>
<path d="M1606 178 c3 -5 10 -6 15 -3 13 9 11 12 -6 12 -8 0 -12 -4 -9 -9z"/>
</g>
</svg>
